<?xml version="1.0" encoding="UTF-8" standalone="no"?>
<!DOCTYPE svg PUBLIC "-//W3C//DTD SVG 1.1//EN" "http://www.w3.org/Graphics/SVG/1.1/DTD/svg11.dtd">
<svg width="100%" height="100%" viewBox="0 0 2306 263" version="1.1" xmlns="http://www.w3.org/2000/svg" xmlns:xlink="http://www.w3.org/1999/xlink" xml:space="preserve" xmlns:serif="http://www.serif.com/" style="fill-rule:evenodd;clip-rule:evenodd;stroke-linejoin:round;stroke-miterlimit:2;">
    <g transform="matrix(1,0,0,1,-4570,-9532)">
        <g id="Artboard9" transform="matrix(1,0,0,1,-0.420616,-0.922056)">
            <rect x="4570.42" y="9532.92" width="2305.99" height="262.725" style="fill:none;"/>
            <clipPath id="_clip1">
                <rect x="4570.42" y="9532.92" width="2305.99" height="262.725"/>
            </clipPath>
            <g clip-path="url(#_clip1)">
                <g transform="matrix(1,0,0,1,5239.09,8499.33)">
                    <path d="M609.475,1262.14L609.475,1075.47L661.208,1075.47L735.875,1197.34L708.675,1197.34L781.208,1075.47L832.942,1075.47L833.475,1262.14L776.142,1262.14L775.608,1161.87L784.675,1161.87L735.075,1245.34L707.342,1245.34L655.608,1161.87L666.808,1161.87L666.808,1262.14L609.475,1262.14Z" style="fill:rgb(17,17,17);fill-rule:nonzero;"/>
                    <path d="M862.275,1262.14L862.275,1162.67C862.275,1143.12 866.186,1126.58 874.008,1113.07C881.831,1099.38 892.586,1088.98 906.275,1081.87C920.142,1074.76 936.142,1071.2 954.275,1071.2C972.408,1071.2 988.408,1074.76 1002.27,1081.87C1016.14,1088.98 1026.9,1099.38 1034.54,1113.07C1042.36,1126.58 1046.28,1143.12 1046.28,1162.67L1046.28,1262.14L983.342,1262.14L983.342,1157.34C983.342,1145.25 980.497,1136.36 974.808,1130.67C969.297,1124.98 962.275,1122.14 953.742,1122.14C945.208,1122.14 938.097,1124.98 932.408,1130.67C926.897,1136.36 924.142,1145.25 924.142,1157.34L924.142,1262.14L862.275,1262.14ZM901.742,1224.54L901.742,1177.07L1005.74,1177.07L1005.74,1224.54L901.742,1224.54Z" style="fill:rgb(17,17,17);fill-rule:nonzero;"/>
                    <path d="M1128.41,1262.14L1049.47,1075.47L1117.21,1075.47L1181.48,1233.07L1141.21,1233.07L1207.34,1075.47L1269.21,1075.47L1190.28,1262.14L1128.41,1262.14Z" style="fill:rgb(17,17,17);fill-rule:nonzero;"/>
                    <path d="M1332.94,1144.8L1416.14,1144.8L1416.14,1190.14L1332.94,1190.14L1332.94,1144.8ZM1337.21,1214.67L1430.54,1214.67L1430.54,1262.14L1275.34,1262.14L1275.34,1075.47L1427.08,1075.47L1427.08,1122.94L1337.21,1122.94L1337.21,1214.67Z" style="fill:rgb(17,17,17);fill-rule:nonzero;"/>
                    <path d="M1568.14,1071.2C1590.19,1071.2 1607.25,1078.4 1619.34,1092.8C1631.61,1107.03 1637.74,1127.47 1637.74,1154.14L1637.74,1262.14L1574.81,1262.14L1574.81,1156C1574.81,1144.27 1572.23,1135.74 1567.08,1130.4C1562.1,1124.89 1555.43,1122.14 1547.08,1122.14C1538.9,1122.14 1531.96,1125.07 1526.28,1130.94C1520.59,1136.63 1517.74,1145.69 1517.74,1158.14L1517.74,1262.14L1454.81,1262.14L1454.81,1075.47L1515.88,1075.47L1515.88,1123.74L1506.28,1112C1511.79,1099.2 1519.7,1089.25 1530.01,1082.14C1540.5,1074.85 1553.21,1071.2 1568.14,1071.2Z" style="fill:rgb(17,17,17);fill-rule:nonzero;"/>
                </g>
                <g transform="matrix(0.580543,0,0,0.580543,4843.11,9265.24)">
                    <path d="M1451.17,461.09L1396.17,722.543L1465.71,722.543L1446.5,913.64L1645.8,607.068L1543.55,607.068L1591.3,461.09L1451.17,461.09Z" style="fill:rgb(78,255,166);"/>
                </g>
                <g transform="matrix(1,0,0,1,3973.1,8497.2)">
                    <path d="M679.075,1266.4C663.431,1266.4 648.319,1264.63 633.742,1261.07C619.164,1257.52 607.164,1252.89 597.742,1247.2L618.008,1201.34C626.897,1206.49 636.764,1210.67 647.608,1213.87C658.631,1216.89 669.297,1218.4 679.608,1218.4C685.653,1218.4 690.364,1218.05 693.742,1217.34C697.297,1216.45 699.875,1215.29 701.475,1213.87C703.075,1212.27 703.875,1210.4 703.875,1208.27C703.875,1204.89 702.008,1202.23 698.275,1200.27C694.542,1198.32 689.564,1196.71 683.342,1195.47C677.297,1194.05 670.631,1192.63 663.342,1191.2C656.053,1189.6 648.675,1187.56 641.208,1185.07C633.919,1182.58 627.164,1179.29 620.942,1175.2C614.897,1171.12 610.008,1165.78 606.275,1159.2C602.542,1152.45 600.675,1144.09 600.675,1134.14C600.675,1122.58 603.875,1112.09 610.275,1102.67C616.853,1093.07 626.542,1085.43 639.342,1079.74C652.319,1074.05 668.408,1071.2 687.608,1071.2C700.231,1071.2 712.675,1072.54 724.942,1075.2C737.208,1077.87 748.231,1081.96 758.008,1087.47L739.075,1133.07C729.831,1128.45 720.853,1124.98 712.142,1122.67C703.608,1120.36 695.253,1119.2 687.075,1119.2C681.031,1119.2 676.231,1119.74 672.675,1120.8C669.119,1121.87 666.542,1123.29 664.942,1125.07C663.519,1126.85 662.808,1128.8 662.808,1130.94C662.808,1134.14 664.675,1136.71 668.408,1138.67C672.142,1140.45 677.031,1141.96 683.075,1143.2C689.297,1144.45 696.053,1145.78 703.342,1147.2C710.808,1148.63 718.186,1150.58 725.475,1153.07C732.764,1155.56 739.431,1158.85 745.475,1162.94C751.697,1167.03 756.675,1172.36 760.408,1178.94C764.142,1185.52 766.008,1193.69 766.008,1203.47C766.008,1214.85 762.719,1225.34 756.142,1234.94C749.742,1244.36 740.142,1252 727.342,1257.87C714.542,1263.56 698.453,1266.4 679.075,1266.4Z" style="fill:rgb(17,17,17);fill-rule:nonzero;"/>
                    <path d="M882.542,1266.4C867.431,1266.4 853.386,1264 840.408,1259.2C827.608,1254.4 816.497,1247.65 807.075,1238.94C797.653,1230.05 790.275,1219.65 784.942,1207.74C779.786,1195.83 777.208,1182.85 777.208,1168.8C777.208,1154.58 779.786,1141.6 784.942,1129.87C790.275,1117.96 797.653,1107.65 807.075,1098.94C816.497,1090.05 827.608,1083.2 840.408,1078.4C853.386,1073.6 867.431,1071.2 882.542,1071.2C897.831,1071.2 911.875,1073.6 924.675,1078.4C937.475,1083.2 948.586,1090.05 958.008,1098.94C967.431,1107.65 974.719,1117.96 979.875,1129.87C985.208,1141.6 987.875,1154.58 987.875,1168.8C987.875,1182.85 985.208,1195.83 979.875,1207.74C974.719,1219.65 967.431,1230.05 958.008,1238.94C948.586,1247.65 937.475,1254.4 924.675,1259.2C911.875,1264 897.831,1266.4 882.542,1266.4ZM882.542,1215.47C888.408,1215.47 893.831,1214.4 898.808,1212.27C903.964,1210.14 908.408,1207.12 912.142,1203.2C916.053,1199.12 919.075,1194.23 921.208,1188.54C923.342,1182.67 924.408,1176.09 924.408,1168.8C924.408,1161.52 923.342,1155.03 921.208,1149.34C919.075,1143.47 916.053,1138.58 912.142,1134.67C908.408,1130.58 903.964,1127.47 898.808,1125.34C893.831,1123.2 888.408,1122.14 882.542,1122.14C876.675,1122.14 871.164,1123.2 866.008,1125.34C861.031,1127.47 856.586,1130.58 852.675,1134.67C848.942,1138.58 846.008,1143.47 843.875,1149.34C841.742,1155.03 840.675,1161.52 840.675,1168.8C840.675,1176.09 841.742,1182.67 843.875,1188.54C846.008,1194.23 848.942,1199.12 852.675,1203.2C856.586,1207.12 861.031,1210.14 866.008,1212.27C871.164,1214.4 876.675,1215.47 882.542,1215.47Z" style="fill:rgb(17,17,17);fill-rule:nonzero;"/>
                    <path d="M1078.28,1266.4C1056.59,1266.4 1039.61,1259.29 1027.34,1245.07C1015.25,1230.67 1009.21,1210.14 1009.21,1183.47L1009.21,1075.47L1072.14,1075.47L1072.14,1181.6C1072.14,1193.34 1074.63,1201.96 1079.61,1207.47C1084.59,1212.8 1091.16,1215.47 1099.34,1215.47C1107.16,1215.47 1113.92,1212.63 1119.61,1206.94C1125.3,1201.07 1128.14,1191.91 1128.14,1179.47L1128.14,1075.47L1191.08,1075.47L1191.08,1262.14L1130.01,1262.14L1130.01,1213.87L1139.61,1225.6C1134.1,1238.4 1126.19,1248.45 1115.88,1255.74C1105.56,1262.85 1093.03,1266.4 1078.28,1266.4Z" style="fill:rgb(17,17,17);fill-rule:nonzero;"/>
                    <path d="M1334.81,1071.2C1356.85,1071.2 1373.92,1078.4 1386.01,1092.8C1398.28,1107.03 1404.41,1127.47 1404.41,1154.14L1404.41,1262.14L1341.48,1262.14L1341.48,1156C1341.48,1144.27 1338.9,1135.74 1333.74,1130.4C1328.76,1124.89 1322.1,1122.14 1313.74,1122.14C1305.56,1122.14 1298.63,1125.07 1292.94,1130.94C1287.25,1136.63 1284.41,1145.69 1284.41,1158.14L1284.41,1262.14L1221.48,1262.14L1221.48,1075.47L1282.54,1075.47L1282.54,1123.74L1272.94,1112C1278.45,1099.2 1286.36,1089.25 1296.67,1082.14C1307.16,1074.85 1319.88,1071.2 1334.81,1071.2Z" style="fill:rgb(17,17,17);fill-rule:nonzero;"/>
                    <path d="M1433.21,1262.14L1433.21,1075.47L1525.21,1075.47C1546.01,1075.47 1564.32,1079.29 1580.14,1086.94C1595.96,1094.4 1608.32,1105.07 1617.21,1118.94C1626.1,1132.8 1630.54,1149.34 1630.54,1168.54C1630.54,1187.91 1626.1,1204.63 1617.21,1218.67C1608.32,1232.54 1595.96,1243.29 1580.14,1250.94C1564.32,1258.4 1546.01,1262.14 1525.21,1262.14L1433.21,1262.14ZM1496.14,1213.07L1522.54,1213.07C1531.43,1213.07 1539.16,1211.38 1545.74,1208C1552.5,1204.63 1557.74,1199.65 1561.48,1193.07C1565.21,1186.32 1567.08,1178.14 1567.08,1168.54C1567.08,1159.12 1565.21,1151.12 1561.48,1144.54C1557.74,1137.96 1552.5,1132.98 1545.74,1129.6C1539.16,1126.23 1531.43,1124.54 1522.54,1124.54L1496.14,1124.54L1496.14,1213.07Z" style="fill:rgb(17,17,17);fill-rule:nonzero;"/>
                </g>
            </g>
        </g>
    </g>
</svg>
