<?xml version="1.0" encoding="UTF-8" standalone="no"?>
<svg
    fill="#fafafa"
    version="1.1"
    id="Layer_1"
    x="0px"
    y="0px"
    width="615.55499"
    viewBox="0 0 615.55499 670.21386"
    enable-background="new 0 0 992 736"
    xml:space="preserve"
    height="670.21387"
    xmlns="http://www.w3.org/2000/svg"
><defs id="defs26" />
    <path
        opacity="1"
        stroke="none"
        d="m 206.07019,267.36782 c 5.00106,1.71957 9.11251,0.63663 13.19387,-1.77936 5.15613,-3.05218 10.58075,-5.65098 15.73441,-8.70705 4.81128,-2.85299 8.56634,-6.73672 10.45102,-12.65875 -5.11411,-0.6195 -8.90625,3.22707 -14.15451,3.15033 3.14929,-8.07219 9.30639,-14.27292 10.64474,-23.05455 -8.80233,-0.96394 -16.72378,1.14972 -24.71478,2.33191 -14.13458,2.09105 -28.00751,6.16039 -42.49484,5.56545 -8.42648,-0.34606 -16.52304,-2.00745 -23.98618,-6.09946 -1.20624,-0.66135 -3.00021,-0.81119 -3.08175,-2.68041 0.36572,-0.88763 1.05535,-0.90319 1.71282,-0.83325 19.98804,2.12612 37.76758,-4.32486 54.6926,-14.07959 12.4173,-7.15666 24.6322,-14.64085 36.65982,-22.43905 3.07846,-1.99591 5.09748,-4.55573 6.62869,-7.83864 8.16776,-17.51108 14.71375,-35.73473 23.48829,-52.98396 3.94986,-7.76468 9.2828,-14.17363 16.34683,-19.19627 8.41846,-5.98558 16.67175,-12.223524 25.30493,-17.881734 10.20355,-6.68747 16.41632,-16.31044 21.52545,-26.96701 1.32538,-2.764454 2.16858,-5.878037 5.45703,-8.989537 3.86811,9.990497 8.79712,18.832817 6.88562,29.475537 -1.84369,10.26519 -7.08551,18.935864 -12.91815,27.334574 -4.94049,7.11406 -10.06628,14.12017 -14.62268,21.47595 -9.58734,15.47778 -11.52771,31.60945 -3.41821,48.47291 1.32751,2.76051 3.1228,3.98729 5.9414,4.5649 8.3097,1.70283 16.59705,3.51931 24.87366,5.37788 17.78241,3.99316 32.33008,13.83983 45.69464,25.66126 5.4018,4.77812 11.19202,9.20614 15.87091,14.85278 -1.77228,1.642 -3.16784,0.5858 -4.48913,0.1813 -28.53498,-8.73567 -57.9043,-10.39999 -87.47174,-10.29025 -6.62098,0.0246 -7.4596,1.28174 -5.47992,7.4401 1.06958,3.32742 2.34271,6.58956 3.53143,9.87847 2.98224,8.25144 2.98395,8.25081 -2.02515,14.79755 6.29267,3.25508 13.38874,4.07335 19.73084,6.8382 16.13147,7.0325 32.78515,5.88998 49.62555,4.09372 14.95923,-1.59562 28.72955,-6.0597 41.88965,-13.53721 18.26525,-10.37823 37.87725,-18.04544 57.25238,-26.11471 3.1286,-1.30299 4.28051,-2.69396 3.34076,-6.34653 -10.53601,-40.95053 -20.87006,-81.95298 -31.3039,-122.929884 -1.97577,-7.75909 -2.90503,-8.13594 -10.8443,-6.58038 -8.98443,1.76037 -16.22564,6.69074 -23.20624,12.19401 -1.27887,1.008234 -2.29486,2.473634 -5.0404,2.588844 -2.44415,-5.008434 -5.09845,-10.320094 -7.62775,-15.690614 -1.06567,-2.26268 0.72638,-3.28237 2.24787,-4.35717 6.69226,-4.72752 13.9096,-8.52855 21.26104,-12.09605 1.46363,-0.71027 2.91938,-1.43705 5.14869,-2.53563 -8.88691,-2.56213 -16.90082,-4.87257 -25.72828,-7.41755 3.43213,-3.11204 6.86573,-3.210829 9.90668,-4.187964 14.01935,-4.504799 28.0437,-5.799927 41.94538,0.42841 2.05914,0.922554 3.49029,-0.257561 5.15411,-0.898106 5.96619,-2.296818 11.70752,-5.315548 17.94757,-6.471947 1.36609,2.531064 -0.0516,3.848675 -0.69318,5.252858 -2.90661,6.362589 -5.65039,12.818939 -8.93249,18.986299 -5.41742,10.17993 -5.62702,20.35242 -2.36011,31.338424 10.15271,34.14147 19.86243,68.41539 29.58264,102.68369 1.08972,3.84175 2.90149,6.6645 6.48535,8.25717 4.87787,2.16771 7.28675,5.29852 6.81433,11.16196 -1.9317,23.97758 6.83338,45.74934 14.37238,67.82158 18.72705,54.82843 35.93335,110.14169 51.97473,165.81598 6.08155,21.10671 12.71057,42.07818 17.43952,63.53555 1.88549,8.55523 1.41149,17.39264 -1.75208,27.10565 -3.87707,-5.15466 -6.03241,-9.97662 -7.75445,-14.87555 -13.91865,-39.59418 -27.71595,-79.23105 -41.49982,-118.8725 -17.56,-50.50177 -33.81439,-101.42303 -48.95642,-152.70089 -0.36988,-1.25248 -0.75995,-3.07544 -1.66895,-3.4992 -6.19024,-2.886 -12.80206,-4.61245 -19.44012,-6.10124 -1.99854,-0.44824 -2.13391,1.6426 -2.26441,3.14624 -0.63238,7.29152 -1.44726,14.57404 -1.83172,21.87897 -1.24372,23.63135 -0.8327,47.30582 -1.57324,70.944 -0.69391,22.14819 0.0733,44.31253 -1.40119,66.45502 -0.95508,14.34213 -3.82171,28.33596 -6.09827,42.44833 -3.39318,21.03415 -6.74847,42.07501 -10.95343,62.96771 -0.38055,1.89075 -0.48809,3.91242 -2.25939,5.64435 -2.10431,-1.54883 -2.39655,-3.97369 -3.17762,-6.02283 -13.29309,-34.87552 -26.56604,-69.79031 -44.65564,-102.53769 -13.55554,-24.5393 -28.44104,-48.25802 -49.1549,-67.66503 -5.73005,-5.36853 -11.90265,-10.17817 -18.47248,-14.47092 -1.32898,-0.86832 -2.67364,-2.38751 -4.46625,-1.19708 -1.44525,0.95978 -1.14233,2.66943 -1.13677,4.14056 0.0599,15.83579 1.19879,31.62613 2.48809,47.38898 1.80475,22.06503 4.49933,44.04135 7.71784,65.9501 5.7359,39.04505 13.75927,77.61258 23.89215,115.75229 4.83014,18.18036 9.97461,36.26801 15.73126,54.17285 1.31,4.07428 0.21277,5.44525 -3.84088,5.61896 -15.30396,0.656 -30.59558,1.65363 -45.90405,2.1344 -21.46814,0.67425 -42.90967,2.48602 -64.40387,1.98468 -28.13126,-0.65625 -56.19516,-2.67792 -84.2587,-4.64246 -5.9794,-0.41858 -11.95621,-0.91211 -17.94284,-1.17541 -3.44275,-0.15143 -4.85974,-1.14923 -3.70065,-4.90705 10.10971,-32.77575 18.61975,-65.99279 27.38528,-99.14392 8.60214,-32.53329 13.96448,-65.71179 20.43927,-98.67001 4.97244,-25.31119 9.75336,-50.66003 14.60553,-75.99478 0.3306,-1.72629 1.08972,-3.48779 -0.7562,-6.34882 -39.83056,59.9787 -82.89559,117.22083 -110.66119,183.90607 -2.4971,-0.591 -2.42325,-3.00696 -3.04004,-4.67712 -11.42825,-30.94837 -18.15149,-62.90564 -21.1174,-95.76615 -2.55945,-28.35766 -1.0538,-56.53091 1.83475,-84.74625 2.89639,-28.29202 5.3851,-56.62597 7.99545,-84.9468 0.44217,-4.79715 -2.33313,-7.41066 -7.0921,-6.17189 -5.37155,1.39825 -10.98203,2.37184 -14.95493,7.19293 -2.38821,2.89807 -6.02374,4.06734 -9.95974,3.5012 -6.60776,-0.95045 -7.84363,-2.92649 -5.43735,-9.06747 1.32819,-3.38965 1.5318,-6.45241 -0.0394,-10.02002 -4.08646,-9.27873 -5.43646,-19.14403 -5.18835,-29.27423 0.0945,-3.8578 0.73199,-5.81642 5.5047,-4.84599 4.93914,1.00424 9.9071,2.72546 16.16217,2.03785 -7.74326,-8.84349 -13.5615,-17.90222 -12.88697,-29.72337 6.69126,5.69945 9.95945,14.12328 16.47177,20.38684 1.95713,-2.44774 2.74292,-5.1523 3.76206,-7.71504 20.49591,-51.5388 41.04703,-103.055864 61.4111,-154.646728 4.91513,-12.452085 15.96814,-18.100499 25.44635,-25.335517 2.65201,1.420977 2.27329,3.464636 2.53619,5.17153 0.68342,4.436828 1.35181,8.881749 1.81299,13.34547 0.49732,4.813207 0.37583,9.438778 -1.69198,14.14545 -20.50485,46.672501 -42.92755,92.458455 -64.00562,138.864335 -3.56314,7.84462 -7.12314,15.69064 -10.9566,24.13527 9.62066,-0.94933 18.02136,-4.21901 27.12787,-5.16446 -3.51911,5.17134 -8.72104,7.91428 -14.17502,10.43866 -5.69852,2.63757 -11.978,2.63125 -18.23291,4.16191 0.66653,3.78003 2.34103,7.08223 5.45343,8.52686 14.7608,6.85131 27.50592,16.93682 41.29239,25.33503 10.76407,6.5571 22.66568,8.32543 34.66589,10.29294 10.84119,1.7775 21.63886,3.82048 32.8635,5.836 m 60.05709,-6.1315 c -10.21341,11.73038 -15.90634,25.74915 -21.20648,40.51807 3.00784,-0.42399 3.60358,-3.49897 6.95316,-3.24799 -4.3526,16.63296 -6.90882,33.42514 -8.90677,51.64832 5.08908,-4.36499 5.8034,-10.0344 10.47296,-13.22617 -1.629,16.94018 0.28445,33.44705 2.78095,50.12924 4.27627,-1.0527 5.27416,-5.02249 8.96246,-5.6257 3.699,8.71295 3.50375,18.67706 8.53372,27.79788 4.05231,-4.95614 3.81656,-10.71649 6.65561,-15.63626 3.69522,3.96539 1.15503,10.11121 5.66794,14.03671 5.28003,-11.15493 5.75744,-23.09005 9.06024,-34.5812 4.89008,2.7012 6.25177,8.23822 11.25037,10.78814 0.82531,-17.47216 0.23217,-34.29113 -1.93232,-50.71768 3.07795,-1.31784 5.27405,1.58576 7.90082,-0.64963 -0.30853,-13.4956 -4.72613,-26.6181 -7.09399,-40.1499 2.86059,-0.60489 4.39422,2.25406 7.44891,0.79382 -4.89886,-11.04266 -11.29748,-21.11492 -18.73797,-31.12312 -4.44379,2.93343 -8.43799,5.58241 -12.44718,8.2086 -1.08874,0.71317 -2.36987,2.13279 -3.54654,1.2327 -4.09314,-3.13092 -9.43878,-4.99448 -10.71756,-10.95685 6.4436,-6.18559 13.84308,-6.63403 21.72501,-3.43693 5.25244,2.13054 10.40417,4.50927 16.90436,7.34565 -4.38416,-5.80995 -7.91382,-10.41478 -11.35724,-15.08328 -1.58527,-2.14918 -3.24506,-2.94855 -5.93305,-1.71602 -4.13739,1.89713 -8.42602,1.29738 -12.66534,0.0379 -7.80377,-2.3185 -7.94083,-2.40185 -13.11884,4.27666 -2.37295,3.06056 -6.00903,5.5319 -6.28509,10.40741 4.13525,-0.90392 6.67401,-4.4737 11.01184,-4.61211 -0.33112,1.32713 -0.56604,2.26868 -1.37998,3.54175 z"
        id="path21"/>
    <path
        opacity="1"
        stroke="none"
        d="m 330.69256,658.07949 c -7.16443,0.01 -13.8305,-0.0543 -20.49359,0.0556 -3.56043,0.0587 -4.67474,-1.35345 -4.13367,-4.89923 1.5094,-9.89172 2.36518,-10.89587 12.51905,-11.28241 6.82287,-0.25983 13.66149,-0.22961 20.49102,-0.15088 5.44587,0.0628 11.41809,8.92292 9.73414,14.20887 -0.67353,2.11431 -2.52198,1.94091 -4.12202,1.97686 -4.49688,0.10083 -8.99664,0.069 -13.99493,0.0912 z"
        id="path25"/>
    <path
        opacity="1"
        stroke="none"
        d="m 241.79818,653.18331 c 0.34043,3.08057 -1.08813,3.98566 -3.49502,3.98041 -11.6254,-0.0256 -23.25083,-0.0259 -34.87619,-0.0544 -1.15842,-0.003 -2.33878,-0.0588 -3.17386,-1.0843 -2.57596,-3.1632 1.70895,-14.89593 5.78207,-15.03839 9.77689,-0.34204 19.57746,-0.82586 29.34497,0.51441 2.56531,0.35205 3.79038,1.78406 4.41523,4.0412 0.66406,2.39868 1.29403,4.80682 2.0028,7.64111 z"
        id="path26"/>
</svg>
